# xmcd CD database file
#
# Track frame offsets:
#	150
#	21648
#	39917
#	47579
#	58154
#	68308
#	76865
#	86984
#	100008
#	108983
#	115885
#	126805
#	135766
#	146700
#	161840
#	172094
#	183177
#	205304
#	229315
#	247012
#	278897
#	318989
#
# Disc length: 4729 seconds
#
# Revision: 0
# Processed by: cddbd v1.5.2PL0 Copyright (c) Steve Scherf et al.
# Submitted via: CDex 1.70beta2
#
DISCID=35127716
DTITLE=Various Artist - Ejazz Entertainment
DYEAR=2003
DGENRE=Jazz
TTITLE0=Alone Together
TTITLE1=Stella By Starlight
TTITLE2=Our Love is Here to Stay
TTITLE3=When I Fall in Love
TTITLE4=Triste
TTITLE5=There is no Greater Love
TTITLE6=My One and Only Love
TTITLE7=Chega De Saudade
TTITLE8=Sunny Side of the Street
TTITLE9=I Should Care
TTITLE10=Corcovado
TTITLE11=I'll Be Seeing You
TTITLE12=My Funny Valentine
TTITLE13=The Way You Look Tonight
TTITLE14=Unforgettable
TTITLE15=How Insensitive
TTITLE16=You'd Be So Nice to Come Home
TTITLE17=Skylark
TTITLE18=O Grande Amor
TTITLE19=Previous Misconceptions
TTITLE20=Simplicity
TTITLE21=Joao
EXTD=YEAR: 2003
EXTT0=
EXTT1=
EXTT2=
EXTT3=
EXTT4=
EXTT5=
EXTT6=
EXTT7=
EXTT8=
EXTT9=
EXTT10=
EXTT11=
EXTT12=
EXTT13=
EXTT14=
EXTT15=
EXTT16=
EXTT17=
EXTT18=
EXTT19=
EXTT20=
EXTT21=
PLAYORDER=
